<svg width="21" height="22" viewBox="0 0 21 22" fill="none" xmlns="http://www.w3.org/2000/svg">
<path fill-rule="evenodd" clip-rule="evenodd" d="M14.2712 13.6583L18.9963 18.5991C19.1619 18.7712 19.2551 19.0055 19.2551 19.2499C19.2551 19.4943 19.1619 19.7286 18.9963 19.9008C18.832 20.0743 18.6083 20.1719 18.375 20.1719C18.1417 20.1719 17.918 20.0743 17.7537 19.9008L13.0375 14.9508C11.8146 15.9563 10.3046 16.5019 8.75 16.4999C4.88401 16.4999 1.75 13.2167 1.75 9.16658C1.75 5.1165 4.88401 1.83325 8.75 1.83325C12.616 1.83325 15.75 5.1165 15.75 9.16658C15.7519 10.7952 15.2311 12.3772 14.2712 13.6583ZM8.75 3.66659C5.8505 3.66659 3.5 6.12902 3.5 9.16658C3.5 12.2042 5.8505 14.6666 8.75 14.6666C11.6495 14.6666 14 12.2042 14 9.16658C14 6.12902 11.6495 3.66659 8.75 3.66659Z" fill="#231F20" fill-opacity="0.48"/>
</svg>
