<svg width="45" height="31" viewBox="0 0 45 31" fill="none" xmlns="http://www.w3.org/2000/svg">
<path d="M22.2028 13.95C25.147 13.95 27.9707 14.7666 30.0526 16.22C32.1345 17.6734 33.3041 19.6446 33.3041 21.7001V31.0001H28.8636V21.7001C28.8637 20.514 28.2145 19.3727 27.049 18.5097C25.8834 17.6468 24.2896 17.1274 22.5935 17.0578L22.2028 17.05C20.5038 17.05 18.869 17.5032 17.6329 18.3168C16.3967 19.1305 15.6527 20.2432 15.553 21.4273L15.5419 21.7001V31.0001H11.1014V21.7001C11.1014 19.6446 12.271 17.6734 14.3529 16.22C16.4348 14.7666 19.2585 13.95 22.2028 13.95ZM7.77097 18.6C8.39042 18.6 8.99212 18.6512 9.56939 18.7457C9.18978 19.5347 8.96496 20.3559 8.90109 21.187L8.88111 21.7001V21.8334C8.62589 21.7696 8.36043 21.728 8.09069 21.7094L7.77097 21.7001C6.94306 21.7001 6.14486 21.9154 5.532 22.304C4.91914 22.6926 4.53557 23.2266 4.45609 23.8019L4.44055 24.0251V31.0001H0V24.0251C0 22.5863 0.818724 21.2064 2.27606 20.189C3.7334 19.1716 5.70998 18.6001 7.77097 18.6ZM36.6346 18.6C38.6955 18.6001 40.6721 19.1716 42.1295 20.189C43.5868 21.2064 44.4055 22.5863 44.4055 24.0251V31.0001H39.965V24.0251C39.9649 23.4471 39.6565 22.8899 39.0999 22.462C38.5433 22.0342 37.7784 21.7664 36.9543 21.7109L36.6346 21.7001C36.246 21.7001 35.873 21.7466 35.5244 21.8318V21.7001C35.5244 20.6678 35.2846 19.6758 34.8384 18.7489C35.4134 18.6512 36.0151 18.6 36.6346 18.6ZM7.77097 9.30002C9.2431 9.30002 10.6549 9.70828 11.6959 10.435C12.7369 11.1617 13.3217 12.1473 13.3217 13.175C13.3217 14.2028 12.7369 15.1884 11.6959 15.9151C10.6549 16.6418 9.2431 17.05 7.77097 17.05C6.29883 17.05 4.88699 16.6418 3.84604 15.9151C2.80508 15.1884 2.22028 14.2028 2.22028 13.175C2.22028 12.1473 2.80508 11.1617 3.84604 10.435C4.88699 9.70828 6.29883 9.30003 7.77097 9.30002ZM36.6346 9.30002C38.1067 9.30002 39.5185 9.70828 40.5595 10.435C41.6004 11.1617 42.1852 12.1473 42.1852 13.175C42.1852 14.2028 41.6004 15.1884 40.5595 15.9151C39.5185 16.6418 38.1067 17.05 36.6346 17.05C35.1624 17.05 33.7506 16.6418 32.7096 15.9151C31.6687 15.1884 31.0839 14.2028 31.0839 13.175C31.0839 12.1473 31.6687 11.1617 32.7096 10.435C33.7506 9.70828 35.1624 9.30003 36.6346 9.30002ZM7.77097 12.4C7.47654 12.4 7.19417 12.4817 6.98598 12.627C6.77779 12.7724 6.66083 12.9695 6.66083 13.175C6.66083 13.3806 6.77779 13.5777 6.98598 13.723C7.19417 13.8684 7.47654 13.95 7.77097 13.95C8.06539 13.95 8.34776 13.8684 8.55595 13.723C8.76414 13.5777 8.88111 13.3806 8.88111 13.175C8.88111 12.9695 8.76414 12.7724 8.55595 12.627C8.34776 12.4817 8.06539 12.4 7.77097 12.4ZM36.6346 12.4C36.3401 12.4 36.0578 12.4817 35.8496 12.627C35.6414 12.7724 35.5244 12.9695 35.5244 13.175C35.5244 13.3806 35.6414 13.5777 35.8496 13.723C36.0578 13.8684 36.3401 13.95 36.6346 13.95C36.929 13.95 37.2114 13.8684 37.4195 13.723C37.6277 13.5777 37.7447 13.3806 37.7447 13.175C37.7447 12.9695 37.6277 12.7724 37.4195 12.627C37.2114 12.4817 36.929 12.4 36.6346 12.4ZM22.2028 0C24.5582 0 26.8171 0.653214 28.4827 1.81594C30.1482 2.97867 31.0839 4.55567 31.0839 6.20002C31.0839 7.84436 30.1482 9.42136 28.4827 10.5841C26.8171 11.7468 24.5582 12.4 22.2028 12.4C19.8473 12.4 17.5884 11.7468 15.9229 10.5841C14.2573 9.42136 13.3217 7.84436 13.3217 6.20002C13.3217 4.55567 14.2573 2.97867 15.9229 1.81594C17.5884 0.653214 19.8473 0 22.2028 0ZM22.2028 3.10001C21.0251 3.10001 19.8956 3.42662 19.0628 4.00798C18.2301 4.58934 17.7622 5.37784 17.7622 6.20002C17.7622 7.02219 18.2301 7.81069 19.0628 8.39205C19.8956 8.97342 21.0251 9.30002 22.2028 9.30002C23.3805 9.30002 24.5099 8.97342 25.3427 8.39205C26.1755 7.81069 26.6433 7.02219 26.6433 6.20002C26.6433 5.37784 26.1755 4.58934 25.3427 4.00798C24.5099 3.42662 23.3805 3.10001 22.2028 3.10001Z" fill="#231F20"/>
</svg>
