<svg width="13" height="13" viewBox="0 0 13 13" fill="none" xmlns="http://www.w3.org/2000/svg">
<path d="M10.2918 1.08337H2.7085C2.27752 1.08337 1.86419 1.25458 1.55945 1.55933C1.2547 1.86407 1.0835 2.2774 1.0835 2.70837V3.34212C1.08342 3.5658 1.12952 3.78709 1.21891 3.99212V4.02462C1.29544 4.19848 1.40383 4.35648 1.5385 4.49046L4.87516 7.80546V11.375C4.87498 11.4671 4.89826 11.5577 4.9428 11.6382C4.98735 11.7188 5.05169 11.7867 5.12975 11.8355C5.21595 11.8889 5.31542 11.917 5.41683 11.9167C5.50162 11.9162 5.58511 11.8958 5.66058 11.8571L7.82725 10.7738C7.91657 10.7288 7.99169 10.6599 8.04428 10.5748C8.09686 10.4897 8.12486 10.3917 8.12516 10.2917V7.80546L11.4402 4.49046C11.5748 4.35648 11.6832 4.19848 11.7597 4.02462V3.99212C11.8566 3.78869 11.9101 3.56734 11.9168 3.34212V2.70837C11.9168 2.2774 11.7456 1.86407 11.4409 1.55933C11.1361 1.25458 10.7228 1.08337 10.2918 1.08337ZM7.19891 7.19879C7.14871 7.2494 7.10899 7.30943 7.08204 7.37542C7.05508 7.44142 7.04142 7.51209 7.04183 7.58337V9.95587L5.9585 10.4975V7.58337C5.95891 7.51209 5.94524 7.44142 5.91829 7.37542C5.89133 7.30943 5.85162 7.2494 5.80141 7.19879L2.93058 4.33337H10.0697L7.19891 7.19879ZM10.8335 3.25004H2.16683V2.70837C2.16683 2.56472 2.2239 2.42694 2.32548 2.32536C2.42706 2.22378 2.56484 2.16671 2.7085 2.16671H10.2918C10.4355 2.16671 10.5733 2.22378 10.6748 2.32536C10.7764 2.42694 10.8335 2.56472 10.8335 2.70837V3.25004Z" fill="black"/>
</svg>
