<svg width="20" height="20" viewBox="0 0 20 20" fill="none" xmlns="http://www.w3.org/2000/svg">
<path d="M10.2413 4.3417L11.4913 5.5917C11.5688 5.6698 11.661 5.7318 11.7625 5.77411C11.8641 5.81641 11.973 5.8382 12.083 5.8382C12.193 5.8382 12.3019 5.81641 12.4035 5.77411C12.505 5.7318 12.5972 5.6698 12.6747 5.5917C12.8011 5.45895 12.8803 5.2882 12.8999 5.10591C12.9195 4.92361 12.8784 4.73995 12.783 4.58336H15.833C16.054 4.58336 16.266 4.49557 16.4223 4.33929C16.5785 4.18301 16.6663 3.97104 16.6663 3.75003C16.6663 3.52902 16.5785 3.31706 16.4223 3.16077C16.266 3.00449 16.054 2.9167 15.833 2.9167H12.783C12.8784 2.76012 12.9195 2.57645 12.8999 2.39415C12.8803 2.21186 12.8011 2.04111 12.6747 1.90836C12.5972 1.83026 12.505 1.76826 12.4035 1.72595C12.3019 1.68365 12.193 1.66187 12.083 1.66187C11.973 1.66187 11.8641 1.68365 11.7625 1.72595C11.661 1.76826 11.5688 1.83026 11.4913 1.90836L10.2413 3.15836C10.1655 3.23762 10.106 3.33107 10.0663 3.43336C9.98299 3.63625 9.98299 3.86381 10.0663 4.0667C10.106 4.16899 10.1655 4.26244 10.2413 4.3417ZM19.0997 7.60003C19.06 7.49774 19.0005 7.40428 18.9247 7.32503L17.6747 6.07503C17.5972 5.99692 17.505 5.93493 17.4035 5.89262C17.3019 5.85031 17.193 5.82853 17.083 5.82853C16.973 5.82853 16.8641 5.85031 16.7625 5.89262C16.661 5.93493 16.5688 5.99692 16.4913 6.07503C16.3649 6.20778 16.2857 6.37853 16.2661 6.56082C16.2465 6.74312 16.2876 6.92678 16.383 7.08336H13.333C13.112 7.08336 12.9 7.17116 12.7438 7.32744C12.5875 7.48372 12.4997 7.69568 12.4997 7.9167C12.4997 8.13771 12.5875 8.34967 12.7438 8.50595C12.9 8.66223 13.112 8.75003 13.333 8.75003H16.383C16.2876 8.90661 16.2465 9.09028 16.2661 9.27257C16.2857 9.45487 16.3649 9.62562 16.4913 9.75836C16.5688 9.83647 16.661 9.89847 16.7625 9.94077C16.8641 9.98308 16.973 10.0049 17.083 10.0049C17.193 10.0049 17.3019 9.98308 17.4035 9.94077C17.505 9.89847 17.5972 9.83647 17.6747 9.75836L18.9247 8.50836C19.0005 8.42911 19.06 8.33566 19.0997 8.23336C19.183 8.03048 19.183 7.80292 19.0997 7.60003ZM9.16634 8.33336C8.50707 8.33336 7.8626 8.52886 7.31444 8.89513C6.76628 9.2614 6.33903 9.782 6.08674 10.3911C5.83445 11.0002 5.76844 11.6704 5.89706 12.317C6.02567 12.9636 6.34314 13.5575 6.80932 14.0237C7.27549 14.4899 7.86944 14.8074 8.51604 14.936C9.16264 15.0646 9.83287 14.9986 10.442 14.7463C11.051 14.494 11.5716 14.0668 11.9379 13.5186C12.3042 12.9704 12.4997 12.326 12.4997 11.6667C12.4997 10.7826 12.1485 9.9348 11.5234 9.30967C10.8982 8.68455 10.0504 8.33336 9.16634 8.33336ZM9.16634 13.3334C8.83671 13.3334 8.51447 13.2356 8.24039 13.0525C7.96631 12.8693 7.75269 12.609 7.62654 12.3045C7.5004 12 7.46739 11.6648 7.5317 11.3415C7.59601 11.0182 7.75474 10.7213 7.98783 10.4882C8.22092 10.2551 8.51789 10.0964 8.84119 10.0321C9.16449 9.96775 9.4996 10.0008 9.80415 10.1269C10.1087 10.253 10.369 10.4667 10.5521 10.7407C10.7353 11.0148 10.833 11.3371 10.833 11.6667C10.833 12.1087 10.6574 12.5326 10.3449 12.8452C10.0323 13.1578 9.60837 13.3334 9.16634 13.3334ZM16.6663 10.8334C16.4453 10.8334 16.2334 10.9212 16.0771 11.0774C15.9208 11.2337 15.833 11.4457 15.833 11.6667V15.8334C15.833 16.0544 15.7452 16.2663 15.5889 16.4226C15.4327 16.5789 15.2207 16.6667 14.9997 16.6667H3.33301C3.11199 16.6667 2.90003 16.5789 2.74375 16.4226C2.58747 16.2663 2.49967 16.0544 2.49967 15.8334V9.1667C2.49967 8.94568 2.58747 8.73372 2.74375 8.57744C2.90003 8.42116 3.11199 8.33336 3.33301 8.33336H4.99967C5.18244 8.34231 5.36306 8.29085 5.51367 8.18693C5.66428 8.08301 5.7765 7.9324 5.83301 7.75836L6.28301 6.40836C6.3351 6.24785 6.43469 6.10694 6.56862 6.00427C6.70254 5.90159 6.86448 5.842 7.03301 5.83336H8.33301C8.55402 5.83336 8.76598 5.74557 8.92226 5.58929C9.07854 5.43301 9.16634 5.22104 9.16634 5.00003C9.16634 4.77902 9.07854 4.56706 8.92226 4.41078C8.76598 4.25449 8.55402 4.1667 8.33301 4.1667H7.03301C6.50685 4.16651 5.99404 4.33234 5.56761 4.64056C5.14118 4.94879 4.82287 5.3837 4.65801 5.88336L4.39967 6.6667H3.33301C2.66997 6.6667 2.03408 6.93009 1.56524 7.39893C1.0964 7.86777 0.833008 8.50366 0.833008 9.1667V15.8334C0.833008 16.4964 1.0964 17.1323 1.56524 17.6011C2.03408 18.07 2.66997 18.3334 3.33301 18.3334H14.9997C15.6627 18.3334 16.2986 18.07 16.7674 17.6011C17.2363 17.1323 17.4997 16.4964 17.4997 15.8334V11.6667C17.4997 11.4457 17.4119 11.2337 17.2556 11.0774C17.0993 10.9212 16.8874 10.8334 16.6663 10.8334Z" fill="white"/>
</svg>
