<svg width="25" height="25" viewBox="0 0 25 25" fill="none" xmlns="http://www.w3.org/2000/svg">
<path d="M17.7079 11.0313L13.2391 15.448C13.1423 15.5456 13.0271 15.6231 12.9001 15.676C12.7732 15.7289 12.637 15.7561 12.4995 15.7561C12.362 15.7561 12.2259 15.7289 12.0989 15.676C11.972 15.6231 11.8568 15.5456 11.7599 15.448L7.34328 11.0313C7.24565 10.9345 7.16815 10.8193 7.11527 10.6923C7.06238 10.5654 7.03516 10.4292 7.03516 10.2917C7.03516 10.1542 7.06238 10.0181 7.11527 9.89113C7.16815 9.76419 7.24565 9.64898 7.34328 9.55215C7.53845 9.35814 7.80246 9.24924 8.07765 9.24924C8.35285 9.24924 8.61686 9.35814 8.81203 9.55215L12.4995 13.2396L16.187 9.55215C16.3811 9.3597 16.6429 9.25121 16.9162 9.25006C17.0533 9.24927 17.1892 9.27555 17.3161 9.32738C17.443 9.37922 17.5584 9.4556 17.6558 9.55215C17.7569 9.6455 17.8385 9.75796 17.8959 9.88304C17.9533 10.0081 17.9854 10.1433 17.9902 10.2809C17.9951 10.4184 17.9726 10.5555 17.9241 10.6843C17.8757 10.8132 17.8022 10.9311 17.7079 11.0313Z" fill="black"/>
</svg>
