<svg width="26" height="23" viewBox="0 0 26 23" fill="none" xmlns="http://www.w3.org/2000/svg">
<g filter="url(#filter0_f_274_4291)">
<path d="M22.1651 9.09501C22.013 7.71509 21.4536 6.39303 20.5413 5.25755C19.6291 4.12208 18.3951 3.2119 16.9596 2.61563C15.524 2.01937 13.9358 1.75735 12.3496 1.85508C10.7634 1.95281 9.23331 2.40697 7.90824 3.17333C6.76985 3.83694 5.81419 4.71212 5.10989 5.73598C4.4056 6.75985 3.97016 7.90699 3.83486 9.09501C3.70213 10.2752 3.87242 11.4664 4.33338 12.5822C4.79434 13.6979 5.53441 14.7102 6.49989 15.5456L12.2416 20.5606C12.3423 20.6491 12.4622 20.7194 12.5942 20.7673C12.7262 20.8153 12.8678 20.8399 13.0108 20.8399C13.1538 20.8399 13.2954 20.8153 13.4274 20.7673C13.5594 20.7194 13.6793 20.6491 13.78 20.5606L19.5 15.5456C20.4655 14.7102 21.2056 13.6979 21.6665 12.5822C22.1275 11.4664 22.2978 10.2752 22.1651 9.09501ZM17.9834 14.2139L13 18.5584L8.01657 14.2139C7.28216 13.5736 6.71959 12.7994 6.36931 11.947C6.01903 11.0946 5.88973 10.1851 5.99072 9.2839C6.09235 8.36883 6.42596 7.48488 6.96743 6.69597C7.50889 5.90706 8.24468 5.23289 9.12159 4.72223C10.271 4.05661 11.6201 3.70156 13 3.70156C14.3798 3.70156 15.729 4.05661 16.8783 4.72223C17.7526 5.23092 18.4868 5.9021 19.0281 6.68756C19.5694 7.47301 19.9045 8.35324 20.0092 9.26501C20.1135 10.1692 19.9858 11.0824 19.6354 11.9383C19.2851 12.7942 18.7207 13.5715 17.9834 14.2139ZM13 5.66667C12.0358 5.66667 11.0932 5.91593 10.2915 6.38293C9.48983 6.84992 8.86498 7.51368 8.496 8.29027C8.12702 9.06686 8.03048 9.92139 8.21858 10.7458C8.40669 11.5702 8.87099 12.3275 9.55278 12.9219C10.2346 13.5163 11.1032 13.921 12.0489 14.085C12.9946 14.249 13.9748 14.1648 14.8656 13.8432C15.7564 13.5215 16.5177 12.9768 17.0534 12.2779C17.5891 11.5789 17.875 10.7572 17.875 9.91668C17.8722 8.79027 17.3576 7.71071 16.444 6.91422C15.5304 6.11773 14.292 5.66917 13 5.66667ZM13 12.2778C12.4643 12.2778 11.9407 12.1393 11.4953 11.8799C11.0499 11.6204 10.7028 11.2517 10.4978 10.8202C10.2928 10.3888 10.2391 9.91406 10.3436 9.45604C10.4481 8.99803 10.7061 8.57732 11.0849 8.24712C11.4636 7.91691 11.9462 7.69203 12.4716 7.60093C12.997 7.50983 13.5415 7.55658 14.0364 7.73529C14.5313 7.914 14.9543 8.21663 15.2519 8.60491C15.5495 8.99319 15.7083 9.44969 15.7083 9.91668C15.7083 10.5429 15.423 11.1434 14.9151 11.5862C14.4072 12.029 13.7183 12.2778 13 12.2778Z" fill="black"/>
</g>
<defs>
<filter id="filter0_f_274_4291" x="-4.11023" y="-4.11023" width="34.2205" height="30.8872" filterUnits="userSpaceOnUse" color-interpolation-filters="sRGB">
<feFlood flood-opacity="0" result="BackgroundImageFix"/>
<feBlend mode="normal" in="SourceGraphic" in2="BackgroundImageFix" result="shape"/>
<feGaussianBlur stdDeviation="2" result="effect1_foregroundBlur_274_4291"/>
</filter>
</defs>
</svg>
