<svg width="24" height="24" viewBox="0 0 24 24" fill="none" xmlns="http://www.w3.org/2000/svg">
<path d="M20.16 4.61006C19.0983 3.54806 17.6907 2.90238 16.1932 2.79044C14.6957 2.67849 13.2078 3.10772 12 4.00006C10.7277 3.0537 9.14399 2.62457 7.56792 2.7991C5.99185 2.97362 4.54044 3.73884 3.50597 4.94064C2.47151 6.14245 1.93082 7.69158 1.9928 9.27607C2.05478 10.8606 2.71482 12.3627 3.84 13.4801L11.29 20.9301C11.383 21.0238 11.4936 21.0982 11.6154 21.1489C11.7373 21.1997 11.868 21.2259 12 21.2259C12.132 21.2259 12.2627 21.1997 12.3846 21.1489C12.5064 21.0982 12.617 21.0238 12.71 20.9301L20.16 13.4801C20.7427 12.8978 21.2049 12.2064 21.5202 11.4454C21.8356 10.6844 21.9979 9.86879 21.9979 9.04506C21.9979 8.22133 21.8356 7.40567 21.5202 6.64469C21.2049 5.88371 20.7427 5.19233 20.16 4.61006ZM18.75 12.0701L12 18.8101L5.25 12.0701C4.65518 11.4728 4.24998 10.7131 4.08523 9.8864C3.92049 9.05969 4.00353 8.20274 4.32395 7.42305C4.64437 6.64336 5.1879 5.97565 5.88635 5.50368C6.58479 5.03171 7.40706 4.7765 8.25 4.77006C9.37611 4.77282 10.4551 5.22239 11.25 6.02006C11.343 6.11379 11.4536 6.18818 11.5754 6.23895C11.6973 6.28972 11.828 6.31586 11.96 6.31586C12.092 6.31586 12.2227 6.28972 12.3446 6.23895C12.4664 6.18818 12.577 6.11379 12.67 6.02006C13.4883 5.31094 14.5455 4.9392 15.6275 4.98008C16.7096 5.02096 17.7357 5.47141 18.4982 6.24025C19.2607 7.00909 19.7026 8.0389 19.7345 9.12125C19.7664 10.2036 19.3859 11.2576 18.67 12.0701H18.75Z" fill="black"/>
</svg>
