<svg width="28" height="27" viewBox="0 0 28 27" fill="none" xmlns="http://www.w3.org/2000/svg">
<path d="M19.8333 10.125H8.16666C7.85724 10.125 7.5605 10.2435 7.34171 10.4545C7.12291 10.6655 7 10.9516 7 11.25C7 11.5484 7.12291 11.8345 7.34171 12.0455C7.5605 12.2565 7.85724 12.375 8.16666 12.375H19.8333C20.1427 12.375 20.4395 12.2565 20.6583 12.0455C20.8771 11.8345 21 11.5484 21 11.25C21 10.9516 20.8771 10.6655 20.6583 10.4545C20.4395 10.2435 20.1427 10.125 19.8333 10.125ZM15.1667 14.625H8.16666C7.85724 14.625 7.5605 14.7435 7.34171 14.9545C7.12291 15.1655 7 15.4516 7 15.75C7 16.0484 7.12291 16.3345 7.34171 16.5455C7.5605 16.7565 7.85724 16.875 8.16666 16.875H15.1667C15.4761 16.875 15.7728 16.7565 15.9916 16.5455C16.2104 16.3345 16.3333 16.0484 16.3333 15.75C16.3333 15.4516 16.2104 15.1655 15.9916 14.9545C15.7728 14.7435 15.4761 14.625 15.1667 14.625ZM14 2.25C12.4679 2.25 10.9508 2.54099 9.53536 3.10636C8.11989 3.67172 6.83377 4.50039 5.75042 5.54505C3.56249 7.65483 2.33333 10.5163 2.33333 13.5C2.32313 16.0978 3.25592 18.6171 4.97 20.6213L2.63666 22.8713C2.47478 23.0295 2.36512 23.2303 2.32151 23.4486C2.27791 23.6668 2.30232 23.8926 2.39166 24.0975C2.48856 24.2999 2.64565 24.47 2.84298 24.5862C3.04032 24.7024 3.269 24.7594 3.5 24.75H14C17.0942 24.75 20.0617 23.5647 22.2496 21.455C24.4375 19.3452 25.6667 16.4837 25.6667 13.5C25.6667 10.5163 24.4375 7.65483 22.2496 5.54505C20.0617 3.43526 17.0942 2.25 14 2.25ZM14 22.5H6.31166L7.39666 21.4538C7.61396 21.243 7.73592 20.9578 7.73592 20.6606C7.73592 20.3634 7.61396 20.0783 7.39666 19.8675C5.86901 18.396 4.9177 16.4594 4.7048 14.3874C4.49191 12.3154 5.0306 10.2364 6.22909 8.50446C7.42759 6.77254 9.21175 5.4949 11.2776 4.88922C13.3434 4.28354 15.5632 4.38728 17.5586 5.18278C19.554 5.97828 21.2017 7.41631 22.2208 9.25188C23.24 11.0874 23.5677 13.207 23.148 15.2494C22.7283 17.2918 21.5872 19.1307 19.9191 20.4528C18.2511 21.7749 16.1592 22.4984 14 22.5Z" fill="white"/>
</svg>
