<svg width="29" height="30" viewBox="0 0 29 30" fill="none" xmlns="http://www.w3.org/2000/svg">
<g clip-path="url(#clip0_268_1164)">
<path d="M21.7873 20.7713L26.9626 26.1238L25.2528 27.8925L20.0787 22.5387C18.1535 24.1353 15.7589 25.0036 13.2915 25C7.2885 25 2.4165 19.96 2.4165 13.75C2.4165 7.54 7.2885 2.5 13.2915 2.5C19.2945 2.5 24.1665 7.54 24.1665 13.75C24.17 16.3025 23.3306 18.7797 21.7873 20.7713ZM19.3634 19.8438C20.8969 18.2124 21.7533 16.0255 21.7498 13.75C21.7498 8.915 17.9641 5 13.2915 5C8.61767 5 4.83317 8.915 4.83317 13.75C4.83317 18.5837 8.61767 22.5 13.2915 22.5C15.4912 22.5036 17.6051 21.6176 19.1821 20.0312L19.3634 19.8438Z" fill="#578CB2"/>
</g>
<defs>
<clipPath id="clip0_268_1164">
<rect width="29" height="30" fill="white"/>
</clipPath>
</defs>
</svg>
