<svg width="24" height="24" viewBox="0 0 24 24" fill="none" xmlns="http://www.w3.org/2000/svg">
<path d="M20.4199 4.12C20.3184 3.87565 20.1242 3.68147 19.8799 3.58C19.7597 3.52876 19.6306 3.50158 19.4999 3.5H15.4999C15.2347 3.5 14.9803 3.60536 14.7928 3.79289C14.6052 3.98043 14.4999 4.23478 14.4999 4.5C14.4999 4.76522 14.6052 5.01957 14.7928 5.20711C14.9803 5.39464 15.2347 5.5 15.4999 5.5H17.0899L14.6899 7.9C13.2728 6.83945 11.5066 6.3551 9.74673 6.54446C7.98689 6.73382 6.36412 7.58282 5.20509 8.92057C4.04607 10.2583 3.43685 11.9855 3.50008 13.7543C3.5633 15.5232 4.29428 17.2025 5.54586 18.454C6.79744 19.7056 8.47669 20.4366 10.2456 20.4998C12.0144 20.563 13.7416 19.9538 15.0793 18.7948C16.4171 17.6358 17.2661 16.013 17.4554 14.2532C17.6448 12.4933 17.1604 10.7271 16.0999 9.31L18.4999 6.91V8.5C18.4999 8.76522 18.6052 9.01957 18.7928 9.20711C18.9803 9.39464 19.2347 9.5 19.4999 9.5C19.7651 9.5 20.0195 9.39464 20.207 9.20711C20.3945 9.01957 20.4999 8.76522 20.4999 8.5V4.5C20.4983 4.36932 20.4711 4.24022 20.4199 4.12ZM13.9999 17C13.3047 17.7093 12.414 18.1954 11.4414 18.3965C10.4688 18.5975 9.45834 18.5044 8.53888 18.1289C7.61943 17.7534 6.83262 17.1126 6.27879 16.2882C5.72495 15.4638 5.42918 14.4932 5.42918 13.5C5.42918 12.5068 5.72495 11.5362 6.27879 10.7118C6.83262 9.88736 7.61943 9.24657 8.53888 8.87109C9.45834 8.49562 10.4688 8.40247 11.4414 8.60353C12.414 8.80459 13.3047 9.29074 13.9999 10C14.916 10.9346 15.4292 12.1912 15.4292 13.5C15.4292 14.8088 14.916 16.0654 13.9999 17Z" fill="black"/>
</svg>
