<svg width="20" height="20" viewBox="0 0 20 20" fill="none" xmlns="http://www.w3.org/2000/svg">
<g filter="url(#filter0_f_268_2551)">
<path d="M14.1671 8.82503L10.5921 12.3584C10.5146 12.4365 10.4224 12.4985 10.3209 12.5408C10.2193 12.5831 10.1104 12.6049 10.0004 12.6049C9.89039 12.6049 9.78147 12.5831 9.67992 12.5408C9.57837 12.4985 9.48621 12.4365 9.40874 12.3584L5.8754 8.82503C5.7973 8.74756 5.7353 8.65539 5.693 8.55384C5.65069 8.45229 5.62891 8.34337 5.62891 8.23336C5.62891 8.12335 5.65069 8.01443 5.693 7.91288C5.7353 7.81133 5.7973 7.71916 5.8754 7.64169C6.03154 7.48648 6.24275 7.39937 6.4629 7.39937C6.68306 7.39937 6.89427 7.48648 7.0504 7.64169L10.0004 10.5917L12.9504 7.64169C13.1056 7.48774 13.3151 7.40095 13.5337 7.40003C13.6434 7.39939 13.7521 7.42041 13.8537 7.46188C13.9552 7.50335 14.0475 7.56446 14.1254 7.64169C14.2063 7.71637 14.2716 7.80635 14.3175 7.90641C14.3634 8.00647 14.3891 8.11464 14.393 8.22467C14.3968 8.3347 14.3789 8.44441 14.3401 8.54745C14.3013 8.6505 14.2425 8.74484 14.1671 8.82503Z" fill="black"/>
</g>
<defs>
<filter id="filter0_f_268_2551" x="-4" y="-4" width="28" height="28" filterUnits="userSpaceOnUse" color-interpolation-filters="sRGB">
<feFlood flood-opacity="0" result="BackgroundImageFix"/>
<feBlend mode="normal" in="SourceGraphic" in2="BackgroundImageFix" result="shape"/>
<feGaussianBlur stdDeviation="2" result="effect1_foregroundBlur_268_2551"/>
</filter>
</defs>
</svg>
