<svg width="25" height="25" viewBox="0 0 25 25" fill="none" xmlns="http://www.w3.org/2000/svg">
<path d="M7.28305 15.1063C7.14624 15.1063 7.01077 15.1332 6.88438 15.1855C6.75798 15.2379 6.64313 15.3146 6.5464 15.4113C6.44966 15.508 6.37294 15.6229 6.3206 15.7493C6.26826 15.8757 6.24134 16.0112 6.24138 16.148V18.0045C4.89872 16.4861 4.15774 14.529 4.15805 12.5021C4.15785 12.1958 4.1762 11.8897 4.21297 11.5856C4.22984 11.4496 4.2197 11.3116 4.18314 11.1795C4.14657 11.0474 4.08431 10.9239 3.99991 10.8159C3.91551 10.708 3.81063 10.6177 3.69128 10.5503C3.57194 10.483 3.44048 10.4398 3.30443 10.4234C3.16838 10.4069 3.03042 10.4175 2.89845 10.4544C2.76649 10.4914 2.64311 10.554 2.53539 10.6387C2.42768 10.7234 2.33774 10.8286 2.27073 10.9481C2.20372 11.0677 2.16096 11.1993 2.1449 11.3353C2.09772 11.7225 2.07428 12.1121 2.07471 12.5021C2.07613 14.9877 2.96946 17.3903 4.59229 19.273H3.11638C2.84011 19.273 2.57516 19.3827 2.37981 19.5781C2.18446 19.7734 2.07471 20.0384 2.07471 20.3146C2.07471 20.5909 2.18446 20.8558 2.37981 21.0512C2.57516 21.2465 2.84011 21.3563 3.11638 21.3563H7.28305C7.44596 21.3542 7.60603 21.3133 7.74992 21.2369C7.89381 21.1605 8.01735 21.0507 8.11026 20.9169C8.12241 20.9009 8.13792 20.889 8.14923 20.8721C8.15617 20.8618 8.15636 20.8495 8.16284 20.8389C8.21248 20.7551 8.24968 20.6644 8.27325 20.5699C8.28868 20.5167 8.29963 20.4624 8.30599 20.4075C8.30898 20.3753 8.32474 20.3476 8.32474 20.3147V16.148C8.32478 16.0112 8.29787 15.8757 8.24553 15.7493C8.19319 15.6229 8.11646 15.5081 8.01973 15.4113C7.92299 15.3146 7.80814 15.2378 7.68173 15.1855C7.55533 15.1332 7.41986 15.1063 7.28305 15.1063ZM8.84555 6.25213H6.98881C8.50735 4.90953 10.4644 4.16856 12.4914 4.1688C12.7976 4.16806 13.1035 4.18641 13.4074 4.22373C13.5433 4.24023 13.681 4.22981 13.8129 4.19306C13.9447 4.15631 14.068 4.09396 14.1757 4.00956C14.2835 3.92515 14.3735 3.82036 14.4408 3.70116C14.508 3.58195 14.5511 3.45068 14.5676 3.31482C14.5841 3.17896 14.5737 3.04118 14.5369 2.90935C14.5002 2.77752 14.4378 2.65422 14.3534 2.54649C14.269 2.43875 14.1642 2.3487 14.045 2.28147C13.9258 2.21423 13.7945 2.17114 13.6587 2.15464C13.2713 2.10791 12.8815 2.08481 12.4914 2.08546C10.0058 2.08681 7.60327 2.98008 5.72055 4.60285V3.12713C5.72055 2.85086 5.6108 2.58591 5.41545 2.39056C5.2201 2.19521 4.95515 2.08546 4.67888 2.08546C4.40261 2.08546 4.13766 2.19521 3.94231 2.39056C3.74696 2.58591 3.63721 2.85086 3.63721 3.12713V7.2938C3.64376 7.36264 3.65749 7.43062 3.67816 7.49662L3.67841 7.49789C3.70371 7.62607 3.75365 7.74812 3.82546 7.85726L3.83736 7.87487C3.90619 7.97498 3.99246 8.06189 4.09205 8.13147C4.10343 8.13981 4.10909 8.15258 4.12091 8.16053C4.1358 8.17038 4.15264 8.1735 4.16784 8.18252C4.22691 8.21806 4.28951 8.24739 4.35463 8.27002C4.44263 8.30064 4.53439 8.31916 4.62738 8.32508C4.64543 8.32604 4.66063 8.33549 4.67888 8.33549H8.84555C9.12181 8.33549 9.38677 8.22575 9.58212 8.0304C9.77747 7.83505 9.88721 7.57009 9.88721 7.29383C9.88721 7.01756 9.77747 6.75261 9.58212 6.55726C9.38677 6.36191 9.12181 6.25216 8.84555 6.25216V6.25213ZM21.3043 17.5064C21.2791 17.3782 21.2291 17.2561 21.1572 17.1469L21.1455 17.1294C21.0766 17.0293 20.9902 16.9423 20.8906 16.8727C20.8792 16.8644 20.8736 16.8516 20.8618 16.8437C20.8506 16.8363 20.8372 16.836 20.8258 16.829C20.6937 16.7556 20.5489 16.7077 20.399 16.688C20.3661 16.6848 20.3376 16.6687 20.3039 16.6687H16.1372C15.8609 16.6687 15.596 16.7785 15.4006 16.9738C15.2053 17.1692 15.0955 17.4341 15.0955 17.7104C15.0955 17.9867 15.2053 18.2516 15.4006 18.447C15.596 18.6423 15.8609 18.7521 16.1372 18.7521H17.9939C16.4754 20.0947 14.5183 20.8357 12.4914 20.8354C12.1852 20.8358 11.8792 20.8171 11.5753 20.7795C11.301 20.7461 11.0246 20.8232 10.807 20.9936C10.5894 21.1641 10.4485 21.414 10.4152 21.6884C10.3818 21.9628 10.4589 22.2391 10.6293 22.4567C10.7998 22.6743 11.0497 22.8152 11.3241 22.8486C11.7114 22.8953 12.1012 22.9187 12.4914 22.9187C14.9769 22.9174 17.3795 22.0241 19.2622 20.4014V21.8771C19.2622 22.1534 19.372 22.4183 19.5673 22.6137C19.7627 22.809 20.0276 22.9188 20.3039 22.9188C20.5801 22.9188 20.8451 22.809 21.0404 22.6137C21.2358 22.4183 21.3455 22.1534 21.3455 21.8771V17.7105C21.339 17.6416 21.3253 17.5736 21.3046 17.5076L21.3043 17.5064ZM21.8664 5.7313C22.1426 5.7313 22.4076 5.62155 22.6029 5.4262C22.7983 5.23085 22.908 4.9659 22.908 4.68963C22.908 4.41336 22.7983 4.14841 22.6029 3.95306C22.4076 3.75771 22.1426 3.64796 21.8664 3.64796H17.6997C17.6319 3.6545 17.5649 3.66801 17.4999 3.68827L17.493 3.68967C17.3664 3.71498 17.246 3.76432 17.1381 3.83501L17.1177 3.84881C17.018 3.91753 16.9315 4.00353 16.8621 4.10274C16.8539 4.11399 16.8413 4.11952 16.8335 4.13116C16.8261 4.14235 16.8258 4.15558 16.8188 4.16695C16.7445 4.29986 16.6963 4.44577 16.6768 4.59681C16.6738 4.62898 16.658 4.6567 16.658 4.68963V8.8563C16.658 9.13256 16.7678 9.39751 16.9631 9.59286C17.1585 9.78822 17.4234 9.89796 17.6997 9.89796C17.976 9.89796 18.2409 9.78822 18.4363 9.59286C18.6316 9.39751 18.7414 9.13256 18.7414 8.8563V6.99913C20.0839 8.51785 20.8249 10.475 20.8247 12.5021C20.8249 12.8084 20.8066 13.1145 20.7698 13.4186C20.7368 13.6928 20.8139 13.9689 20.9842 14.1863C21.1545 14.4037 21.4041 14.5447 21.6782 14.5783C21.7204 14.5832 21.7629 14.5856 21.8053 14.5854C22.0597 14.5851 22.3051 14.4917 22.4953 14.3228C22.6855 14.154 22.8074 13.9214 22.8379 13.6689C22.885 13.2818 22.9085 12.8921 22.908 12.5021C22.9066 10.0165 22.0132 7.61397 20.3903 5.7313H21.8664Z" fill="black"/>
</svg>
