<svg width="31" height="27" viewBox="0 0 31 27" fill="none" xmlns="http://www.w3.org/2000/svg">
<g clip-path="url(#clip0_180_551)">
<path d="M16.7917 23.625V25.875H14.2084V23.625H3.87504C3.53247 23.625 3.20393 23.5065 2.96169 23.2955C2.71946 23.0845 2.58337 22.7984 2.58337 22.5V4.5C2.58337 4.20163 2.71946 3.91549 2.96169 3.70451C3.20393 3.49353 3.53247 3.375 3.87504 3.375H11.625C12.3582 3.37425 13.0831 3.50973 13.7513 3.77241C14.4195 4.03508 15.0157 4.41891 15.5 4.89825C15.9844 4.41891 16.5806 4.03508 17.2488 3.77241C17.917 3.50973 18.6419 3.37425 19.375 3.375H27.125C27.4676 3.375 27.7962 3.49353 28.0384 3.70451C28.2806 3.91549 28.4167 4.20163 28.4167 4.5V22.5C28.4167 22.7984 28.2806 23.0845 28.0384 23.2955C27.7962 23.5065 27.4676 23.625 27.125 23.625H16.7917ZM25.8334 21.375V5.625H19.375C18.6899 5.625 18.0328 5.86206 17.5483 6.28401C17.0639 6.70597 16.7917 7.27827 16.7917 7.875V21.375H25.8334ZM14.2084 21.375V7.875C14.2084 7.27827 13.9362 6.70597 13.4517 6.28401C12.9673 5.86206 12.3102 5.625 11.625 5.625H5.16671V21.375H14.2084Z" fill="black"/>
</g>
<defs>
<clipPath id="clip0_180_551">
<rect width="31" height="27" fill="white"/>
</clipPath>
</defs>
</svg>
