<svg width="17" height="17" viewBox="0 0 17 17" fill="none" xmlns="http://www.w3.org/2000/svg">
<g clip-path="url(#clip0_204_376)">
<path d="M8.49996 15.5833C4.58783 15.5833 1.41663 12.4121 1.41663 8.49996C1.41663 4.58783 4.58783 1.41663 8.49996 1.41663C12.4121 1.41663 15.5833 4.58783 15.5833 8.49996C15.5833 12.4121 12.4121 15.5833 8.49996 15.5833ZM8.49996 14.1666C10.0029 14.1666 11.4442 13.5696 12.5069 12.5069C13.5696 11.4442 14.1666 10.0029 14.1666 8.49996C14.1666 6.99707 13.5696 5.55573 12.5069 4.49302C11.4442 3.43031 10.0029 2.83329 8.49996 2.83329C6.99707 2.83329 5.55573 3.43031 4.49302 4.49302C3.43031 5.55573 2.83329 6.99707 2.83329 8.49996C2.83329 10.0029 3.43031 11.4442 4.49302 12.5069C5.55573 13.5696 6.99707 14.1666 8.49996 14.1666Z" fill="#231F20"/>
</g>
<defs>
<clipPath id="clip0_204_376">
<rect width="17" height="17" fill="white"/>
</clipPath>
</defs>
</svg>
