<svg width="68" height="68" viewBox="0 0 68 68" fill="none" xmlns="http://www.w3.org/2000/svg">
<path d="M0.00377903 37.7784H7.61726C8.53274 44.0686 11.6823 49.819 16.4898 53.9774C21.2973 58.1359 27.4413 60.4245 33.7978 60.4245C40.1543 60.4245 46.2983 58.1359 51.1058 53.9774C55.9133 49.819 59.0629 44.0686 59.9784 37.7784H67.5956C66.6641 46.0904 62.7023 53.7676 56.4674 59.3427C50.2325 64.9179 42.1618 68 33.7978 68C25.4338 68 17.3631 64.9179 11.1282 59.3427C4.89335 53.7676 0.931538 46.0904 0 37.7784H0.00377903ZM0.00377903 30.2216C0.935317 21.9097 4.89713 14.2324 11.132 8.65728C17.3669 3.08212 25.4376 0 33.8016 0C42.1656 0 50.2363 3.08212 56.4712 8.65728C62.706 14.2324 66.6679 21.9097 67.5994 30.2216H59.9859C59.0704 23.9314 55.9208 18.1811 51.1133 14.0226C46.3058 9.86412 40.1619 7.57555 33.8054 7.57555C27.4489 7.57555 21.3049 9.86412 16.4974 14.0226C11.6899 18.1811 8.54029 23.9314 7.62482 30.2216H0.00377903Z" fill="#338309"/>
</svg>
