<svg width="25" height="25" viewBox="0 0 25 25" fill="none" xmlns="http://www.w3.org/2000/svg">
<path d="M7.81256 6.24994C7.50352 6.24994 7.20143 6.34158 6.94448 6.51326C6.68753 6.68495 6.48726 6.92898 6.369 7.21449C6.25073 7.5 6.21979 7.81417 6.28008 8.11726C6.34037 8.42036 6.48918 8.69877 6.7077 8.91729C6.92622 9.13581 7.20463 9.28462 7.50773 9.34491C7.81082 9.4052 8.12499 9.37426 8.4105 9.256C8.69601 9.13774 8.94004 8.93747 9.11173 8.68051C9.28342 8.42356 9.37506 8.12147 9.37506 7.81244C9.37506 7.39804 9.21044 7.00061 8.91741 6.70758C8.62439 6.41456 8.22696 6.24994 7.81256 6.24994ZM22.0001 11.1562L13.2396 2.38535C13.1423 2.28881 13.0269 2.21243 12.9 2.16059C12.773 2.10875 12.6371 2.08248 12.5001 2.08327H3.12506C2.84879 2.08327 2.58384 2.19302 2.38849 2.38837C2.19314 2.58372 2.08339 2.84867 2.08339 3.12494V12.4999C2.0826 12.637 2.10887 12.7729 2.16071 12.8998C2.21255 13.0268 2.28893 13.1422 2.38547 13.2395L11.1563 21.9999C11.7422 22.5851 12.5365 22.9139 13.3646 22.9139C14.1928 22.9139 14.987 22.5851 15.573 21.9999L22.0001 15.6249C22.5853 15.039 22.914 14.2447 22.914 13.4166C22.914 12.5885 22.5853 11.7942 22.0001 11.2083V11.1562ZM20.5313 14.0937L14.0938 20.5208C13.8986 20.7148 13.6346 20.8237 13.3594 20.8237C13.0842 20.8237 12.8202 20.7148 12.6251 20.5208L4.16672 12.0729V4.1666H12.073L20.5313 12.6249C20.6278 12.7223 20.7042 12.8377 20.7561 12.9646C20.8079 13.0915 20.8342 13.2274 20.8334 13.3645C20.8322 13.6378 20.7237 13.8997 20.5313 14.0937Z" fill="black"/>
</svg>
