<svg width="16" height="15" viewBox="0 0 16 15" fill="none" xmlns="http://www.w3.org/2000/svg">
<path d="M11.3332 6.61874L8.47322 9.26874C8.41124 9.32732 8.33751 9.37382 8.25627 9.40555C8.17503 9.43728 8.08789 9.45361 7.99988 9.45361C7.91188 9.45361 7.82474 9.43728 7.7435 9.40555C7.66226 9.37382 7.58853 9.32732 7.52655 9.26874L4.69988 6.61874C4.6374 6.56064 4.5878 6.49151 4.55396 6.41535C4.52011 6.33919 4.50269 6.2575 4.50269 6.17499C4.50269 6.09248 4.52011 6.01079 4.55396 5.93463C4.5878 5.85847 4.6374 5.78934 4.69988 5.73124C4.82479 5.61483 4.99376 5.54949 5.16988 5.54949C5.34601 5.54949 5.51498 5.61483 5.63988 5.73124L7.99988 7.94374L10.3599 5.73124C10.4841 5.61578 10.6517 5.55068 10.8266 5.54999C10.9143 5.54951 11.0013 5.56528 11.0825 5.59638C11.1637 5.62749 11.2376 5.67331 11.2999 5.73124C11.3646 5.78725 11.4168 5.85473 11.4536 5.92978C11.4903 6.00482 11.5108 6.08595 11.5139 6.16847C11.517 6.251 11.5026 6.33328 11.4716 6.41056C11.4406 6.48784 11.3936 6.5586 11.3332 6.61874Z" fill="black"/>
</svg>
