<svg width="32" height="24" viewBox="0 0 32 24" fill="none" xmlns="http://www.w3.org/2000/svg">
<path d="M15.28 8.28994C15.156 8.19621 15.0086 8.12182 14.8461 8.07105C14.6836 8.02028 14.5093 7.99414 14.3333 7.99414C14.1573 7.99414 13.983 8.02028 13.8205 8.07105C13.6581 8.12182 13.5106 8.19621 13.3866 8.28994L9.38665 11.2899C9.26168 11.3829 9.16248 11.4935 9.09479 11.6154C9.0271 11.7372 8.99225 11.8679 8.99225 11.9999C8.99225 12.132 9.0271 12.2627 9.09479 12.3845C9.16248 12.5064 9.26168 12.617 9.38665 12.7099L13.3866 15.7099C13.5106 15.8037 13.6581 15.8781 13.8205 15.9288C13.983 15.9796 14.1573 16.0057 14.3333 16.0057C14.5093 16.0057 14.6836 15.9796 14.8461 15.9288C15.0086 15.8781 15.156 15.8037 15.28 15.7099C15.405 15.617 15.5041 15.5064 15.5718 15.3845C15.6395 15.2627 15.6744 15.132 15.6744 14.9999C15.6744 14.8679 15.6395 14.7372 15.5718 14.6154C15.5041 14.4935 15.405 14.3829 15.28 14.2899L12.2133 11.9999L15.28 9.70994C15.405 9.61698 15.5041 9.50638 15.5718 9.38452C15.6395 9.26266 15.6744 9.13195 15.6744 8.99994C15.6744 8.86793 15.6395 8.73722 15.5718 8.61536C15.5041 8.4935 15.405 8.3829 15.28 8.28994ZM19.5466 11.9999L22.6666 9.70994C22.9177 9.52164 23.0588 9.26624 23.0588 8.99994C23.0588 8.73364 22.9177 8.47824 22.6666 8.28994C22.4156 8.10164 22.0751 7.99585 21.72 7.99585C21.3649 7.99585 21.0244 8.10164 20.7733 8.28994L16.7733 11.2899C16.6483 11.3829 16.5491 11.4935 16.4815 11.6154C16.4138 11.7372 16.3789 11.8679 16.3789 11.9999C16.3789 12.132 16.4138 12.2627 16.4815 12.3845C16.5491 12.5064 16.6483 12.617 16.7733 12.7099L20.7733 15.7099C20.8973 15.8037 21.0447 15.8781 21.2072 15.9288C21.3697 15.9796 21.544 16.0057 21.72 16.0057C21.896 16.0057 22.0703 15.9796 22.2327 15.9288C22.3952 15.8781 22.5427 15.8037 22.6666 15.7099C22.7916 15.617 22.8908 15.5064 22.9585 15.3845C23.0262 15.2627 23.061 15.132 23.061 14.9999C23.061 14.8679 23.0262 14.7372 22.9585 14.6154C22.8908 14.4935 22.7916 14.3829 22.6666 14.2899L19.5466 11.9999Z" fill="black"/>
</svg>
