<svg width="31" height="27" viewBox="0 0 31 27" fill="none" xmlns="http://www.w3.org/2000/svg">
<path d="M23.6352 27H9.87839C8.05413 27 6.30458 26.5022 5.01463 25.6161C3.72469 24.73 3 23.5281 3 22.275V4.725C3 3.47185 3.72469 2.27003 5.01463 1.38392C6.30458 0.497811 8.05413 0 9.87839 0H21.493C21.7537 0 22.0036 0.071116 22.1879 0.197703C22.3722 0.32429 22.4757 0.495979 22.4757 0.675C22.4757 0.854021 22.3722 1.02571 22.1879 1.1523C22.0036 1.27888 21.7537 1.35 21.493 1.35H9.87839C8.57535 1.35 7.32567 1.70558 6.40428 2.33851C5.48289 2.97145 4.96526 3.82989 4.96526 4.725V22.275C4.96526 23.1701 5.48289 24.0286 6.40428 24.6615C7.32567 25.2944 8.57535 25.65 9.87839 25.65H23.6352C24.9382 25.65 26.1879 25.2944 27.1093 24.6615C28.0307 24.0286 28.5483 23.1701 28.5483 22.275V7.3035C28.5483 7.12448 28.6518 6.95279 28.8361 6.8262C29.0204 6.69962 29.2703 6.6285 29.5309 6.6285C29.7916 6.6285 30.0415 6.69962 30.2258 6.8262C30.41 6.95279 30.5136 7.12448 30.5136 7.3035V22.275C30.5136 23.5281 29.7889 24.73 28.4989 25.6161C27.209 26.5022 25.4594 27 23.6352 27Z" fill="black"/>
<path d="M23.6352 27H9.87839C8.05413 27 6.30458 26.5022 5.01463 25.6161C3.72469 24.73 3 23.5281 3 22.275V4.725C3 3.47185 3.72469 2.27003 5.01463 1.38392C6.30458 0.497811 8.05413 0 9.87839 0H21.493C21.7537 0 22.0036 0.071116 22.1879 0.197703C22.3722 0.32429 22.4757 0.495979 22.4757 0.675C22.4757 0.854021 22.3722 1.02571 22.1879 1.1523C22.0036 1.27888 21.7537 1.35 21.493 1.35H9.87839C8.57535 1.35 7.32567 1.70558 6.40428 2.33851C5.48289 2.97145 4.96526 3.82989 4.96526 4.725V22.275C4.96526 23.1701 5.48289 24.0286 6.40428 24.6615C7.32567 25.2944 8.57535 25.65 9.87839 25.65H23.6352C24.9382 25.65 26.1879 25.2944 27.1093 24.6615C28.0307 24.0286 28.5483 23.1701 28.5483 22.275V7.3035C28.5483 7.12448 28.6518 6.95279 28.8361 6.8262C29.0204 6.69962 29.2703 6.6285 29.5309 6.6285C29.7916 6.6285 30.0415 6.69962 30.2258 6.8262C30.41 6.95279 30.5136 7.12448 30.5136 7.3035V22.275C30.5136 23.5281 29.7889 24.73 28.4989 25.6161C27.209 26.5022 25.4594 27 23.6352 27Z" fill="black"/>
<path d="M27.7428 9.45H21.4933C20.7129 9.41524 19.9839 9.17025 19.465 8.76829C18.9461 8.36634 18.6792 7.83992 18.7223 7.3035V2.1465C18.6792 1.61008 18.9461 1.08366 19.465 0.68171C19.9839 0.279756 20.7129 0.0347635 21.4933 3.81842e-07C21.6362 -0.000105105 21.7774 0.0216467 21.9066 0.0636775C22.0357 0.105708 22.1497 0.166964 22.2401 0.243L30.278 6.8715C30.4327 6.99007 30.5169 7.14427 30.5138 7.3035C30.5569 7.83992 30.29 8.36634 29.7711 8.76829C29.2522 9.17025 28.5232 9.41524 27.7428 9.45ZM21.1395 1.431C20.9902 1.51891 20.8718 1.62901 20.7935 1.75297C20.7152 1.87693 20.679 2.0115 20.6875 2.1465V7.3035C20.6875 7.7355 21.0609 8.1 21.4933 8.1H27.7428C28.0965 8.1 28.411 7.8435 28.5093 7.5195L21.1395 1.431Z" fill="black"/>
</svg>
