<svg width="31" height="27" viewBox="0 0 31 27" fill="none" xmlns="http://www.w3.org/2000/svg">
<g clip-path="url(#clip0_180_660)">
<path d="M16.7916 23.625V25.875H14.2083V23.625H3.87498C3.53241 23.625 3.20387 23.5065 2.96163 23.2955C2.7194 23.0845 2.58331 22.7984 2.58331 22.5V4.5C2.58331 4.20163 2.7194 3.91549 2.96163 3.70451C3.20387 3.49353 3.53241 3.375 3.87498 3.375H11.625C12.3581 3.37425 13.083 3.50973 13.7512 3.77241C14.4194 4.03508 15.0156 4.41891 15.5 4.89825C15.9843 4.41891 16.5805 4.03508 17.2487 3.77241C17.917 3.50973 18.6418 3.37425 19.375 3.375H27.125C27.4676 3.375 27.7961 3.49353 28.0383 3.70451C28.2806 3.91549 28.4166 4.20163 28.4166 4.5V22.5C28.4166 22.7984 28.2806 23.0845 28.0383 23.2955C27.7961 23.5065 27.4676 23.625 27.125 23.625H16.7916ZM25.8333 21.375V5.625H19.375C18.6898 5.625 18.0328 5.86206 17.5483 6.28401C17.0638 6.70597 16.7916 7.27827 16.7916 7.875V21.375H25.8333ZM14.2083 21.375V7.875C14.2083 7.27827 13.9361 6.70597 13.4517 6.28401C12.9672 5.86206 12.3101 5.625 11.625 5.625H5.16665V21.375H14.2083Z" fill="#E48716"/>
</g>
<defs>
<clipPath id="clip0_180_660">
<rect width="31" height="27" fill="white"/>
</clipPath>
</defs>
</svg>
