<svg width="29" height="19" viewBox="0 0 29 19" fill="none" xmlns="http://www.w3.org/2000/svg">
<path d="M3.625 2.53806H25.375C25.5871 2.53803 25.7955 2.57459 25.9792 2.64406C26.163 2.71354 26.3155 2.81347 26.4216 2.93383C26.5277 3.05418 26.5835 3.19071 26.5836 3.32969C26.5836 3.46867 26.5277 3.6052 26.4217 3.72556L15.5467 16.066C15.432 16.179 15.2764 16.2718 15.0938 16.3359C14.9112 16.4 14.7072 16.4336 14.5 16.4336C14.2928 16.4336 14.0888 16.4 13.9062 16.3359C13.7236 16.2718 13.568 16.179 13.4533 16.066L2.57833 3.72556C2.47227 3.6052 2.41643 3.46867 2.41644 3.32969C2.41645 3.19071 2.47231 3.05418 2.57839 2.93383C2.68447 2.81347 2.83703 2.71354 3.02075 2.64406C3.20448 2.57459 3.41287 2.53803 3.625 2.53806Z" fill="#FF0000"/>
</svg>
