<svg width="30" height="28" viewBox="0 0 30 28" fill="none" xmlns="http://www.w3.org/2000/svg">
<path d="M25.575 11.235C25.3995 9.53035 24.754 7.89722 23.7015 6.49457C22.6489 5.09193 21.2251 3.96759 19.5687 3.23103C17.9123 2.49447 16.0798 2.17079 14.2496 2.29152C12.4194 2.41225 10.6539 2.97327 9.12497 3.91995C7.81147 4.73971 6.70879 5.8208 5.89615 7.08558C5.08352 8.35035 4.58109 9.76741 4.42497 11.235C4.27183 12.6929 4.46832 14.1644 5.00019 15.5426C5.53206 16.9209 6.38597 18.1713 7.49997 19.2033L14.125 25.3983C14.2412 25.5076 14.3794 25.5944 14.5318 25.6537C14.6841 25.7129 14.8475 25.7434 15.0125 25.7434C15.1775 25.7434 15.3409 25.7129 15.4932 25.6537C15.6455 25.5944 15.7838 25.5076 15.9 25.3983L22.5 19.2033C23.614 18.1713 24.4679 16.9209 24.9998 15.5426C25.5316 14.1644 25.7281 12.6929 25.575 11.235ZM20.75 17.5583L15 22.925L9.24997 17.5583C8.40259 16.7673 7.75348 15.811 7.34931 14.758C6.94514 13.705 6.79595 12.5815 6.91247 11.4683C7.02975 10.3379 7.41468 9.24597 8.03944 8.27144C8.6642 7.2969 9.51317 6.46411 10.525 5.83329C11.8512 5.01106 13.4079 4.57246 15 4.57246C16.5921 4.57246 18.1488 5.01106 19.475 5.83329C20.4837 6.46167 21.3308 7.29078 21.9554 8.26105C22.58 9.23132 22.9666 10.3187 23.0875 11.445C23.2078 12.562 23.0605 13.6899 22.6562 14.7473C22.2519 15.8046 21.6008 16.7648 20.75 17.5583ZM15 6.99995C13.8875 6.99995 12.7999 7.30786 11.8749 7.88474C10.9499 8.46162 10.2289 9.28155 9.80315 10.2409C9.37741 11.2002 9.26601 12.2558 9.48306 13.2742C9.7001 14.2926 10.2358 15.228 11.0225 15.9623C11.8092 16.6965 12.8114 17.1965 13.9026 17.3991C14.9937 17.6017 16.1247 17.4977 17.1526 17.1003C18.1804 16.703 19.0589 16.0301 19.677 15.1667C20.2951 14.3033 20.625 13.2883 20.625 12.25C20.6217 10.8585 20.028 9.52495 18.9738 8.54105C17.9196 7.55715 16.4908 7.00304 15 6.99995ZM15 15.1666C14.3819 15.1666 13.7777 14.9956 13.2638 14.6751C12.7499 14.3546 12.3494 13.8991 12.1128 13.3661C11.8763 12.8332 11.8144 12.2467 11.935 11.6809C12.0556 11.1152 12.3532 10.5955 12.7903 10.1876C13.2273 9.77966 13.7841 9.50187 14.3903 9.38933C14.9965 9.27679 15.6248 9.33455 16.1959 9.55531C16.7669 9.77606 17.2549 10.1499 17.5983 10.6295C17.9417 11.1092 18.125 11.6731 18.125 12.25C18.125 13.0235 17.7957 13.7654 17.2097 14.3123C16.6236 14.8593 15.8288 15.1666 15 15.1666Z" fill="black"/>
</svg>
