<svg width="36" height="36" viewBox="0 0 36 36" fill="none" xmlns="http://www.w3.org/2000/svg">
<path fill-rule="evenodd" clip-rule="evenodd" d="M31.9655 13.665L30.0005 13.02L30.9305 11.19C31.2262 10.6126 31.1172 9.91059 30.6605 9.44999L26.5505 5.32499C26.0899 4.86822 25.3878 4.75929 24.8105 5.05499L22.9805 5.99999L22.3355 4.04999C22.1264 3.40598 21.5118 2.9819 20.8355 3.01499H15.0905C14.4142 2.9819 13.7996 3.40598 13.5905 4.04999L13.0205 5.99999L11.1905 5.05499C10.6131 4.75929 9.91108 4.86822 9.45048 5.32499L5.32548 9.44999C4.86871 9.91059 4.75977 10.6126 5.05548 11.19L6.00048 13.02L4.05048 13.665C3.40647 13.8741 2.98239 14.4887 3.01548 15.165V20.985C2.98239 21.6613 3.40647 22.2759 4.05048 22.485L6.00048 23.13L5.07048 24.96C4.77477 25.5374 4.88371 26.2394 5.34048 26.7L9.45048 30.675C9.91108 31.1318 10.6131 31.2407 11.1905 30.945L13.0205 30L13.6655 31.95C13.8746 32.594 14.4892 33.0181 15.1655 32.985H20.9855C21.6618 33.0181 22.2764 32.594 22.4855 31.95L23.1305 30L24.9605 30.93C25.5378 31.2257 26.2399 31.1168 26.7005 30.66L30.8255 26.535C31.2822 26.0744 31.3912 25.3724 31.0955 24.795L30.0005 22.98L31.9505 22.335C32.5945 22.1259 33.0186 21.5113 32.9855 20.835V15.09C32.9871 14.4451 32.5764 13.8714 31.9655 13.665ZM10.5005 18C10.5005 13.8579 13.8583 10.5 18.0005 10.5C19.9896 10.5 21.8973 11.2902 23.3038 12.6967C24.7103 14.1032 25.5005 16.0109 25.5005 18C25.5005 22.1421 22.1426 25.5 18.0005 25.5C13.8583 25.5 10.5005 22.1421 10.5005 18ZM13.5005 18C13.5005 20.4853 15.5152 22.5 18.0005 22.5C19.194 22.5 20.3385 22.0259 21.1825 21.182C22.0264 20.3381 22.5005 19.1935 22.5005 18C22.5005 15.5147 20.4858 13.5 18.0005 13.5C15.5152 13.5 13.5005 15.5147 13.5005 18ZM29.0855 20.13L30.0005 19.83V16.17L29.0855 15.87C28.2527 15.6011 27.5788 14.982 27.2405 14.175C26.9082 13.3647 26.9465 12.4496 27.3455 11.67L27.7805 10.8L25.2005 8.21999L24.3305 8.65499C23.5507 9.04815 22.6384 9.08204 21.8316 8.74781C21.0248 8.41357 20.4037 7.7444 20.1305 6.91499L19.8305 5.99999H16.1705L15.8705 6.91499C15.5972 7.7444 14.9761 8.41357 14.1694 8.74781C13.3626 9.08204 12.4502 9.04815 11.6705 8.65499L10.8005 8.21999L8.22048 10.8L8.65548 11.67C9.05445 12.4496 9.0928 13.3647 8.76048 14.175C8.42213 14.982 7.74826 15.6011 6.91548 15.87L6.00048 16.17V19.83L6.91548 20.13C7.74826 20.3989 8.42213 21.0179 8.76048 21.825C9.0928 22.6353 9.05445 23.5503 8.65548 24.33L8.22048 25.2L10.8005 27.78L11.6705 27.345C12.4502 26.9518 13.3626 26.9179 14.1694 27.2522C14.9761 27.5864 15.5972 28.2556 15.8705 29.085L16.1705 30H19.8305L20.1305 29.085C20.4037 28.2556 21.0248 27.5864 21.8316 27.2522C22.6384 26.9179 23.5507 26.9518 24.3305 27.345L25.2005 27.78L27.7805 25.2L27.3455 24.33C26.9465 23.5503 26.9082 22.6353 27.2405 21.825C27.5788 21.0179 28.2527 20.3989 29.0855 20.13Z" fill="#231F20"/>
</svg>
