<svg width="111" height="107" viewBox="0 0 111 107" fill="none" xmlns="http://www.w3.org/2000/svg">
<path d="M24.795 10.9553C17.6287 11.7563 11.8924 17.4123 11.0633 24.5014C8.83601 43.5448 8.83601 62.7828 11.0633 81.8261C11.8924 88.9152 17.6286 94.5713 24.7949 95.3722C43.4355 97.4556 62.7198 97.4556 81.3603 95.3722C88.5266 94.5713 94.2628 88.9152 95.092 81.8261C96.6924 68.1429 97.1428 54.3593 96.4434 40.6195C96.4253 40.2647 96.5578 39.9186 96.809 39.6674L103.314 33.1627C104.067 32.4098 105.353 32.8806 105.433 33.9424C106.661 50.2541 106.323 66.654 104.421 82.9172C103.076 94.4201 93.8402 103.429 82.4036 104.707C63.0697 106.868 43.0856 106.868 23.7517 104.707C12.3151 103.429 3.07942 94.4201 1.73406 82.9172C-0.57802 63.149 -0.57802 43.1786 1.73406 23.4103C3.07942 11.9075 12.3151 2.89884 23.7517 1.62064C43.0856 -0.540212 63.0697 -0.540212 82.4036 1.62064C86.4316 2.07082 90.1866 3.47994 93.42 5.61921C94.0562 6.04016 94.1193 6.9346 93.5798 7.47405L88.5523 12.5016C88.141 12.9129 87.5032 12.982 86.9906 12.7073C85.2785 11.79 83.376 11.1806 81.3603 10.9553C62.7198 8.87199 43.4355 8.87199 24.795 10.9553Z" fill="#338309"/>
<path d="M109.624 15.7824C111.459 13.9483 111.459 10.9747 109.624 9.14066C107.79 7.30659 104.817 7.30659 102.983 9.14066L49.9466 62.1768L34.4818 46.712C32.6478 44.8779 29.6741 44.8779 27.8401 46.712C26.006 48.546 26.006 51.5196 27.8401 53.3537L46.6257 72.1394C48.4598 73.9734 51.4334 73.9734 53.2675 72.1394L109.624 15.7824Z" fill="#338309"/>
</svg>
