<svg width="24" height="24" viewBox="0 0 24 24" fill="none" xmlns="http://www.w3.org/2000/svg">
<path d="M21 20.794H3C2.82445 20.794 2.65198 20.7478 2.49994 20.6601C2.34789 20.5723 2.22163 20.4461 2.13384 20.294C2.04605 20.142 1.99982 19.9696 1.99982 19.794C1.99981 19.6185 2.04602 19.446 2.13379 19.294L11.1338 3.70606C11.2287 3.56325 11.3575 3.44613 11.5086 3.36511C11.6597 3.28409 11.8285 3.2417 12 3.2417C12.1715 3.2417 12.3403 3.28409 12.4914 3.36511C12.6425 3.44613 12.7713 3.56325 12.8662 3.70606L21.8662 19.294C21.954 19.446 22.0002 19.6185 22.0002 19.794C22.0002 19.9696 21.954 20.142 21.8662 20.294C21.7784 20.4461 21.6521 20.5723 21.5001 20.6601C21.348 20.7478 21.1756 20.794 21 20.794Z" fill="#6563FF"/>
</svg>
