<svg width="74" height="71" viewBox="0 0 74 71" fill="none" xmlns="http://www.w3.org/2000/svg">
<path d="M16.53 7.30355C11.7524 7.83751 7.92828 11.6082 7.37552 16.3343C5.89066 29.0298 5.89066 41.8551 7.37552 54.5507C7.92828 59.2768 11.7524 63.0474 16.5299 63.5814C28.957 64.9703 41.8131 64.9703 54.2402 63.5814C59.0177 63.0474 62.8418 59.2768 63.3946 54.5507C64.4615 45.4286 64.7618 36.2395 64.2955 27.0797C64.2835 26.8431 64.3718 26.6124 64.5393 26.4449L68.8758 22.1085C69.3777 21.6065 70.2353 21.9204 70.2886 22.6282C71.107 33.5027 70.8821 44.436 69.6141 55.2781C68.7172 62.9466 62.5601 68.9524 54.9357 69.8045C42.0464 71.2451 28.7237 71.2451 15.8344 69.8045C8.21003 68.9524 2.05295 62.9466 1.15604 55.2781C-0.385346 42.0993 -0.385346 28.7857 1.15604 15.6068C2.05295 7.9383 8.21004 1.93256 15.8344 1.08042C28.7237 -0.360141 42.0464 -0.360141 54.9357 1.08042C57.621 1.38055 60.1243 2.31995 62.2799 3.74614C62.7041 4.02677 62.7461 4.62306 62.3865 4.98269L59.0348 8.3344C58.7606 8.60856 58.3354 8.65468 57.9936 8.47155C56.8523 7.86 55.5839 7.45374 54.2402 7.30355C41.8131 5.91465 28.957 5.91465 16.53 7.30355Z" fill="#338309"/>
<path d="M73.0829 10.5216C74.3056 9.29887 74.3056 7.31647 73.0829 6.09376C71.8602 4.87106 69.8778 4.87106 68.6551 6.09376L33.2977 41.4511L22.9879 31.1413C21.7651 29.9186 19.7827 29.9186 18.56 31.1413C17.3373 32.364 17.3373 34.3464 18.56 35.5691L31.0838 48.0929C32.3065 49.3156 34.2889 49.3156 35.5116 48.0929L73.0829 10.5216Z" fill="#338309"/>
</svg>
