<svg width="32" height="31" viewBox="0 0 32 31" fill="none" xmlns="http://www.w3.org/2000/svg">
<path fill-rule="evenodd" clip-rule="evenodd" d="M22.667 9.04158C22.667 5.47475 19.6822 2.58325 16.0003 2.58325C12.3184 2.58325 9.33366 5.47475 9.33366 9.04158C9.33366 12.6084 12.3184 15.4999 16.0003 15.4999H14.667C8.03958 15.4999 2.66699 20.7046 2.66699 27.1249C2.66699 27.8383 3.26395 28.4166 4.00033 28.4166H28.0003C28.7367 28.4166 29.3337 27.8383 29.3337 27.1249C29.3337 20.7046 23.9611 15.4999 17.3337 15.4999H16.0003C17.7684 15.4999 19.4641 14.8195 20.7144 13.6083C21.9646 12.3971 22.667 10.7544 22.667 9.04158ZM14.667 18.0833C10.0265 18.0821 6.08992 21.3839 5.42699 25.8333H26.5737C25.9107 21.3839 21.9742 18.0821 17.3337 18.0833H14.667ZM12.0003 9.04159C12.0003 11.1817 13.7912 12.9166 16.0003 12.9166C17.0612 12.9166 18.0786 12.5083 18.8288 11.7816C19.5789 11.0549 20.0003 10.0693 20.0003 9.04159C20.0003 6.90148 18.2095 5.16659 16.0003 5.16659C13.7912 5.16659 12.0003 6.90148 12.0003 9.04159Z" fill="#E48716"/>
</svg>
