<svg width="29" height="30" viewBox="0 0 29 30" fill="none" xmlns="http://www.w3.org/2000/svg">
<g clip-path="url(#clip0_45_347)">
<path d="M21.7875 20.7713L26.9627 26.1238L25.253 27.8925L20.0789 22.5387C18.1537 24.1353 15.7591 25.0036 13.2917 25C7.28866 25 2.41666 19.96 2.41666 13.75C2.41666 7.54 7.28866 2.5 13.2917 2.5C19.2947 2.5 24.1667 7.54 24.1667 13.75C24.1702 16.3025 23.3308 18.7797 21.7875 20.7713ZM19.3635 19.8438C20.897 18.2124 21.7535 16.0255 21.75 13.75C21.75 8.915 17.9643 5 13.2917 5C8.61783 5 4.83333 8.915 4.83333 13.75C4.83333 18.5837 8.61783 22.5 13.2917 22.5C15.4913 22.5036 17.6053 21.6176 19.1823 20.0312L19.3635 19.8438Z" fill="#231F20"/>
</g>
<defs>
<clipPath id="clip0_45_347">
<rect width="29" height="30" fill="white"/>
</clipPath>
</defs>
</svg>
