<svg width="25" height="25" viewBox="0 0 25 25" fill="none" xmlns="http://www.w3.org/2000/svg">
<g clip-path="url(#clip0_213_736)">
<path d="M22.9167 7.29167H23.9584V17.7083H22.9167V20.8333C22.9167 21.1096 22.807 21.3746 22.6116 21.5699C22.4163 21.7653 22.1513 21.875 21.875 21.875H3.12504C2.84877 21.875 2.58382 21.7653 2.38847 21.5699C2.19312 21.3746 2.08337 21.1096 2.08337 20.8333V4.16667C2.08337 3.8904 2.19312 3.62545 2.38847 3.4301C2.58382 3.23475 2.84877 3.125 3.12504 3.125H21.875C22.1513 3.125 22.4163 3.23475 22.6116 3.4301C22.807 3.62545 22.9167 3.8904 22.9167 4.16667V7.29167ZM20.8334 17.7083H14.5834C13.202 17.7083 11.8773 17.1596 10.9005 16.1828C9.92377 15.2061 9.37504 13.8813 9.37504 12.5C9.37504 11.1187 9.92377 9.7939 10.9005 8.81715C11.8773 7.8404 13.202 7.29167 14.5834 7.29167H20.8334V5.20833H4.16671V19.7917H20.8334V17.7083ZM21.875 15.625V9.375H14.5834C13.7546 9.375 12.9597 9.70424 12.3737 10.2903C11.7876 10.8763 11.4584 11.6712 11.4584 12.5C11.4584 13.3288 11.7876 14.1237 12.3737 14.7097C12.9597 15.2958 13.7546 15.625 14.5834 15.625H21.875ZM14.5834 11.4583H17.7084V13.5417H14.5834V11.4583Z" fill="#231F20"/>
</g>
<defs>
<clipPath id="clip0_213_736">
<rect width="25" height="25" fill="white"/>
</clipPath>
</defs>
</svg>
