<svg width="42" height="40" viewBox="0 0 42 40" fill="none" xmlns="http://www.w3.org/2000/svg">
<path d="M36.75 26.6666H12.25C11.7859 26.6666 11.3408 26.491 11.0126 26.1784C10.6844 25.8659 10.5 25.4419 10.5 24.9999C10.5 24.5579 10.6844 24.134 11.0126 23.8214C11.3408 23.5088 11.7859 23.3333 12.25 23.3333H30.52C31.6901 23.3333 32.8268 22.9611 33.7494 22.2756C34.672 21.5902 35.3278 20.6308 35.6125 19.5499L38.5 8.73325C38.5655 8.48727 38.5712 8.23027 38.5166 7.98187C38.4621 7.73347 38.3486 7.50022 38.185 7.29992C38.0148 7.09447 37.7962 6.93008 37.5469 6.82005C37.2976 6.71002 37.0246 6.65745 36.75 6.66659H11.83C11.469 5.694 10.8009 4.85158 9.91736 4.25482C9.03385 3.65805 7.97815 3.33615 6.895 3.33325H5.25C4.78587 3.33325 4.34075 3.50885 4.01256 3.82141C3.68437 4.13397 3.5 4.55789 3.5 4.99992C3.5 5.44195 3.68437 5.86587 4.01256 6.17843C4.34075 6.49099 4.78587 6.66659 5.25 6.66659H6.895C7.29476 6.65549 7.68645 6.77514 8.00486 7.00561C8.32327 7.23608 8.54919 7.56346 8.645 7.93325L8.75 8.73325L11.7775 19.9999C10.3851 20.0596 9.07465 20.6436 8.13439 21.6235C7.19412 22.6034 6.70109 23.8988 6.76375 25.2249C6.82641 26.551 7.43962 27.7991 8.46849 28.6946C9.49736 29.59 10.8576 30.0596 12.25 29.9999H12.565C12.2772 30.7551 12.1847 31.5653 12.2954 32.3618C12.4061 33.1582 12.7166 33.9176 13.2008 34.5755C13.685 35.2334 14.3285 35.7705 15.0769 36.1414C15.8252 36.5122 16.6564 36.7058 17.5 36.7058C18.3436 36.7058 19.1748 36.5122 19.9231 36.1414C20.6715 35.7705 21.315 35.2334 21.7992 34.5755C22.2834 33.9176 22.5939 33.1582 22.7046 32.3618C22.8153 31.5653 22.7228 30.7551 22.435 29.9999H26.565C26.2772 30.7551 26.1847 31.5653 26.2954 32.3618C26.4061 33.1582 26.7166 33.9176 27.2008 34.5755C27.685 35.2334 28.3285 35.7705 29.0769 36.1414C29.8252 36.5122 30.6564 36.7058 31.5 36.7058C32.3436 36.7058 33.1748 36.5122 33.9231 36.1414C34.6715 35.7705 35.315 35.2334 35.7992 34.5755C36.2834 33.9176 36.5939 33.1582 36.7046 32.3618C36.8153 31.5653 36.7228 30.7551 36.435 29.9999H36.75C37.2141 29.9999 37.6593 29.8243 37.9874 29.5118C38.3156 29.1992 38.5 28.7753 38.5 28.3333C38.5 27.8912 38.3156 27.4673 37.9874 27.1547C37.6593 26.8422 37.2141 26.6666 36.75 26.6666ZM34.51 9.99992L32.2175 18.7333C32.1217 19.103 31.8958 19.4304 31.5774 19.6609C31.259 19.8914 30.8673 20.011 30.4675 19.9999H15.365L12.74 9.99992H34.51ZM17.5 33.3333C17.1539 33.3333 16.8155 33.2355 16.5278 33.0524C16.24 32.8692 16.0157 32.6089 15.8832 32.3044C15.7508 31.9998 15.7161 31.6647 15.7836 31.3414C15.8512 31.0181 16.0178 30.7212 16.2626 30.4881C16.5073 30.255 16.8191 30.0963 17.1586 30.0319C17.4981 29.9676 17.8499 30.0006 18.1697 30.1268C18.4895 30.2529 18.7628 30.4666 18.9551 30.7406C19.1474 31.0147 19.25 31.337 19.25 31.6666C19.25 32.1086 19.0656 32.5325 18.7374 32.8451C18.4092 33.1577 17.9641 33.3333 17.5 33.3333ZM31.5 33.3333C31.1539 33.3333 30.8155 33.2355 30.5278 33.0524C30.24 32.8692 30.0157 32.6089 29.8832 32.3044C29.7508 31.9998 29.7161 31.6647 29.7836 31.3414C29.8512 31.0181 30.0178 30.7212 30.2626 30.4881C30.5073 30.255 30.8191 30.0963 31.1586 30.0319C31.4981 29.9676 31.8499 30.0006 32.1697 30.1268C32.4895 30.2529 32.7628 30.4666 32.9551 30.7406C33.1474 31.0147 33.25 31.337 33.25 31.6666C33.25 32.1086 33.0656 32.5325 32.7374 32.8451C32.4093 33.1577 31.9641 33.3333 31.5 33.3333Z" fill="black"/>
</svg>
