<svg width="20" height="20" viewBox="0 0 20 20" fill="none" xmlns="http://www.w3.org/2000/svg">
<path d="M11.6666 9.16668H10.8333V8.33335C10.8333 8.11234 10.7455 7.90037 10.5892 7.74409C10.4329 7.58781 10.221 7.50002 9.99995 7.50002C9.77893 7.50002 9.56697 7.58781 9.41069 7.74409C9.25441 7.90037 9.16661 8.11234 9.16661 8.33335V9.16668H8.33328C8.11226 9.16668 7.9003 9.25448 7.74402 9.41076C7.58774 9.56704 7.49994 9.779 7.49994 10C7.49994 10.221 7.58774 10.433 7.74402 10.5893C7.9003 10.7456 8.11226 10.8333 8.33328 10.8333H9.16661V11.6667C9.16661 11.8877 9.25441 12.0997 9.41069 12.2559C9.56697 12.4122 9.77893 12.5 9.99995 12.5C10.221 12.5 10.4329 12.4122 10.5892 12.2559C10.7455 12.0997 10.8333 11.8877 10.8333 11.6667V10.8333H11.6666C11.8876 10.8333 12.0996 10.7456 12.2559 10.5893C12.4121 10.433 12.4999 10.221 12.4999 10C12.4999 9.779 12.4121 9.56704 12.2559 9.41076C12.0996 9.25448 11.8876 9.16668 11.6666 9.16668ZM16.7999 4.16668C15.9114 3.28727 14.7377 2.75441 13.4908 2.66425C12.2439 2.57409 11.0058 2.93258 9.99995 3.67502C8.93966 2.88638 7.61994 2.52878 6.30655 2.67421C4.99315 2.81965 3.78364 3.45733 2.92159 4.45884C2.05953 5.46034 1.60896 6.75128 1.66061 8.07169C1.71226 9.39211 2.26229 10.6439 3.19994 11.575L8.19994 16.6167C8.6687 17.0849 9.30411 17.3478 9.96661 17.3478C10.6291 17.3478 11.2645 17.0849 11.7333 16.6167L16.7333 11.575C17.2257 11.0939 17.6182 10.5202 17.8882 9.88688C18.1582 9.25357 18.3004 8.57314 18.3066 7.88471C18.3128 7.19627 18.1829 6.5134 17.9243 5.87533C17.6658 5.23727 17.2836 4.65659 16.7999 4.16668ZM15.6249 10.3833L10.6249 15.3833C10.5475 15.4615 10.4553 15.5235 10.3538 15.5658C10.2522 15.6081 10.1433 15.6298 10.0333 15.6298C9.92327 15.6298 9.81435 15.6081 9.7128 15.5658C9.61125 15.5235 9.51908 15.4615 9.44161 15.3833L4.44161 10.3833C3.78808 9.7153 3.42212 8.8179 3.42212 7.88335C3.42212 6.94879 3.78808 6.05139 4.44161 5.38335C5.10757 4.72584 6.00576 4.35716 6.94161 4.35716C7.87747 4.35716 8.77565 4.72584 9.44161 5.38335C9.51908 5.46146 9.61125 5.52345 9.7128 5.56576C9.81435 5.60807 9.92327 5.62985 10.0333 5.62985C10.1433 5.62985 10.2522 5.60807 10.3538 5.56576C10.4553 5.52345 10.5475 5.46146 10.6249 5.38335C11.2909 4.72584 12.1891 4.35716 13.1249 4.35716C14.0608 4.35716 14.959 4.72584 15.6249 5.38335C16.2835 6.05214 16.6526 6.95308 16.6526 7.89168C16.6526 8.83028 16.2835 9.73123 15.6249 10.4V10.3833Z" fill="black"/>
</svg>
