<svg width="13" height="13" viewBox="0 0 13 13" fill="none" xmlns="http://www.w3.org/2000/svg">
<path d="M7.04183 8.66667H1.62516C1.4815 8.66667 1.34373 8.72373 1.24215 8.82532C1.14056 8.9269 1.0835 9.06467 1.0835 9.20833C1.0835 9.35199 1.14056 9.48977 1.24215 9.59135C1.34373 9.69293 1.4815 9.75 1.62516 9.75H7.04183C7.18549 9.75 7.32326 9.69293 7.42485 9.59135C7.52643 9.48977 7.5835 9.35199 7.5835 9.20833C7.5835 9.06467 7.52643 8.9269 7.42485 8.82532C7.32326 8.72373 7.18549 8.66667 7.04183 8.66667ZM1.62516 4.33333H11.3752C11.5188 4.33333 11.6566 4.27627 11.7582 4.17468C11.8598 4.0731 11.9168 3.93533 11.9168 3.79167C11.9168 3.64801 11.8598 3.51023 11.7582 3.40865C11.6566 3.30707 11.5188 3.25 11.3752 3.25H1.62516C1.4815 3.25 1.34373 3.30707 1.24215 3.40865C1.14056 3.51023 1.0835 3.64801 1.0835 3.79167C1.0835 3.93533 1.14056 4.0731 1.24215 4.17468C1.34373 4.27627 1.4815 4.33333 1.62516 4.33333ZM11.3752 5.95833H1.62516C1.4815 5.95833 1.34373 6.0154 1.24215 6.11698C1.14056 6.21857 1.0835 6.35634 1.0835 6.5C1.0835 6.64366 1.14056 6.78143 1.24215 6.88302C1.34373 6.9846 1.4815 7.04167 1.62516 7.04167H11.3752C11.5188 7.04167 11.6566 6.9846 11.7582 6.88302C11.8598 6.78143 11.9168 6.64366 11.9168 6.5C11.9168 6.35634 11.8598 6.21857 11.7582 6.11698C11.6566 6.0154 11.5188 5.95833 11.3752 5.95833Z" fill="black"/>
</svg>
