<svg width="10" height="10" viewBox="0 0 10 10" fill="none" xmlns="http://www.w3.org/2000/svg">
<path d="M5.58747 5L7.37914 3.2125C7.4576 3.13404 7.50168 3.02762 7.50168 2.91666C7.50168 2.8057 7.4576 2.69929 7.37914 2.62083C7.30068 2.54237 7.19427 2.49829 7.08331 2.49829C6.97235 2.49829 6.86593 2.54237 6.78748 2.62083L4.99997 4.4125L3.21247 2.62083C3.13401 2.54237 3.0276 2.49829 2.91664 2.49829C2.80568 2.49829 2.69927 2.54237 2.62081 2.62083C2.54235 2.69929 2.49827 2.8057 2.49827 2.91666C2.49827 3.02762 2.54235 3.13404 2.62081 3.2125L4.41247 5L2.62081 6.7875C2.58175 6.82623 2.55076 6.87231 2.5296 6.92309C2.50845 6.97386 2.49756 7.02832 2.49756 7.08333C2.49756 7.13833 2.50845 7.19279 2.5296 7.24357C2.55076 7.29434 2.58175 7.34043 2.62081 7.37916C2.65954 7.41822 2.70563 7.44921 2.7564 7.47037C2.80718 7.49152 2.86164 7.50241 2.91664 7.50241C2.97165 7.50241 3.02611 7.49152 3.07688 7.47037C3.12766 7.44921 3.17374 7.41822 3.21247 7.37916L4.99997 5.5875L6.78748 7.37916C6.82621 7.41822 6.87229 7.44921 6.92307 7.47037C6.97384 7.49152 7.0283 7.50241 7.08331 7.50241C7.13831 7.50241 7.19277 7.49152 7.24355 7.47037C7.29432 7.44921 7.34041 7.41822 7.37914 7.37916C7.41819 7.34043 7.44919 7.29434 7.47035 7.24357C7.4915 7.19279 7.50239 7.13833 7.50239 7.08333C7.50239 7.02832 7.4915 6.97386 7.47035 6.92309C7.44919 6.87231 7.41819 6.82623 7.37914 6.7875L5.58747 5Z" fill="#716B75"/>
</svg>
