<svg width="68" height="83" viewBox="0 0 68 83" fill="none" xmlns="http://www.w3.org/2000/svg">
<path d="M52.8182 7.54546H64.1364C65.137 7.54546 66.0966 7.94294 66.8041 8.65046C67.5116 9.35798 67.9091 10.3176 67.9091 11.3182V79.2273C67.9091 80.2279 67.5116 81.1875 66.8041 81.895C66.0966 82.6025 65.137 83 64.1364 83H3.77273C2.77214 83 1.81253 82.6025 1.10501 81.895C0.397483 81.1875 0 80.2279 0 79.2273V11.3182C0 10.3176 0.397483 9.35798 1.10501 8.65046C1.81253 7.94294 2.77214 7.54546 3.77273 7.54546H15.0909V0H22.6364V7.54546H45.2727V0H52.8182V7.54546ZM52.8182 15.0909V22.6364H45.2727V15.0909H22.6364V22.6364H15.0909V15.0909H7.54546V75.4545H60.3636V15.0909H52.8182ZM15.0909 30.1818H52.8182V37.7273H15.0909V30.1818ZM15.0909 45.2727H52.8182V52.8182H15.0909V45.2727Z" fill="#231F20"/>
</svg>
