<svg width="25" height="25" viewBox="0 0 25 25" fill="none" xmlns="http://www.w3.org/2000/svg">
<path d="M1.04163 13.0209V18.2292C1.04163 18.5055 1.15137 18.7705 1.34672 18.9658C1.54207 19.1612 1.80703 19.2709 2.08329 19.2709H3.12496C3.12496 20.0997 3.4542 20.8946 4.04025 21.4806C4.6263 22.0667 5.42116 22.3959 6.24996 22.3959C7.07876 22.3959 7.87362 22.0667 8.45967 21.4806C9.04572 20.8946 9.37496 20.0997 9.37496 19.2709H15.625C15.625 20.0997 15.9542 20.8946 16.5403 21.4806C17.1263 22.0667 17.9212 22.3959 18.75 22.3959C19.5788 22.3959 20.3736 22.0667 20.9597 21.4806C21.5457 20.8946 21.875 20.0997 21.875 19.2709H22.9166C23.1929 19.2709 23.4578 19.1612 23.6532 18.9658C23.8485 18.7705 23.9583 18.5055 23.9583 18.2292V5.72925C23.9583 4.90045 23.6291 4.10559 23.043 3.51954C22.457 2.93349 21.6621 2.60425 20.8333 2.60425H11.4583C10.6295 2.60425 9.83464 2.93349 9.24858 3.51954C8.66253 4.10559 8.33329 4.90045 8.33329 5.72925V7.81258H6.24996C5.76482 7.81258 5.28634 7.92554 4.85242 8.1425C4.41849 8.35946 4.04104 8.67447 3.74996 9.06258L1.24996 12.3959C1.21949 12.4412 1.19498 12.4902 1.17704 12.5417L1.11454 12.6563C1.06857 12.7725 1.04387 12.896 1.04163 13.0209ZM17.7083 19.2709C17.7083 19.0649 17.7694 18.8635 17.8838 18.6922C17.9983 18.5209 18.161 18.3874 18.3513 18.3085C18.5417 18.2297 18.7511 18.2091 18.9532 18.2493C19.1552 18.2895 19.3409 18.3887 19.4865 18.5343C19.6322 18.68 19.7314 18.8656 19.7716 19.0677C19.8118 19.2698 19.7912 19.4792 19.7123 19.6695C19.6335 19.8599 19.5 20.0226 19.3287 20.137C19.1574 20.2515 18.956 20.3126 18.75 20.3126C18.4737 20.3126 18.2087 20.2028 18.0134 20.0075C17.818 19.8121 17.7083 19.5472 17.7083 19.2709ZM10.4166 5.72925C10.4166 5.45298 10.5264 5.18803 10.7217 4.99268C10.9171 4.79733 11.182 4.68758 11.4583 4.68758H20.8333C21.1096 4.68758 21.3745 4.79733 21.5699 4.99268C21.7652 5.18803 21.875 5.45298 21.875 5.72925V17.1876H21.0625C20.7696 16.8653 20.4125 16.6079 20.0143 16.4317C19.6161 16.2555 19.1854 16.1645 18.75 16.1645C18.3145 16.1645 17.8838 16.2555 17.4856 16.4317C17.0874 16.6079 16.7304 16.8653 16.4375 17.1876H10.4166V5.72925ZM8.33329 11.9792H4.16663L5.41663 10.3126C5.51365 10.1832 5.63947 10.0782 5.78411 10.0059C5.92875 9.93357 6.08825 9.89592 6.24996 9.89592H8.33329V11.9792ZM5.20829 19.2709C5.20829 19.0649 5.26939 18.8635 5.38385 18.6922C5.49831 18.5209 5.66099 18.3874 5.85133 18.3085C6.04167 18.2297 6.25112 18.2091 6.45318 18.2493C6.65524 18.2895 6.84085 18.3887 6.98653 18.5343C7.13221 18.68 7.23142 18.8656 7.27161 19.0677C7.3118 19.2698 7.29118 19.4792 7.21233 19.6695C7.13349 19.8599 6.99998 20.0226 6.82868 20.137C6.65738 20.2515 6.45598 20.3126 6.24996 20.3126C5.97369 20.3126 5.70874 20.2028 5.51339 20.0075C5.31804 19.8121 5.20829 19.5472 5.20829 19.2709ZM3.12496 14.0626H8.33329V16.9584C7.71853 16.409 6.91156 16.1248 6.08818 16.1677C5.2648 16.2106 4.49175 16.5772 3.93746 17.1876H3.12496V14.0626Z" fill="black"/>
</svg>
