<svg width="62" height="33" viewBox="0 0 62 33" fill="none" xmlns="http://www.w3.org/2000/svg">
<g style="mix-blend-mode:hard-light">
<path d="M0.5 16.5C0.5 14.1607 0.501238 13.043 0.632555 12.1128C1.4736 6.15543 6.15543 1.4736 12.1128 0.632555C13.043 0.501238 14.1607 0.5 16.5 0.5H45.5C47.8393 0.5 48.957 0.501238 49.8872 0.632555C55.8446 1.4736 60.5264 6.15543 61.3674 12.1128C61.4988 13.043 61.5 14.1607 61.5 16.5C61.5 18.8393 61.4988 19.957 61.3674 20.8872C60.5264 26.8446 55.8446 31.5264 49.8872 32.3674C48.957 32.4988 47.8393 32.5 45.5 32.5H16.5C14.1607 32.5 13.043 32.4988 12.1128 32.3674C6.15543 31.5264 1.4736 26.8446 0.632555 20.8872C0.501238 19.957 0.5 18.8393 0.5 16.5Z" fill="#D9D9D9"/>
<path d="M0.5 16.5C0.5 14.1607 0.501238 13.043 0.632555 12.1128C1.4736 6.15543 6.15543 1.4736 12.1128 0.632555C13.043 0.501238 14.1607 0.5 16.5 0.5H45.5C47.8393 0.5 48.957 0.501238 49.8872 0.632555C55.8446 1.4736 60.5264 6.15543 61.3674 12.1128C61.4988 13.043 61.5 14.1607 61.5 16.5C61.5 18.8393 61.4988 19.957 61.3674 20.8872C60.5264 26.8446 55.8446 31.5264 49.8872 32.3674C48.957 32.4988 47.8393 32.5 45.5 32.5H16.5C14.1607 32.5 13.043 32.4988 12.1128 32.3674C6.15543 31.5264 1.4736 26.8446 0.632555 20.8872C0.501238 19.957 0.5 18.8393 0.5 16.5Z" stroke="black"/>
</g>
</svg>
