<svg width="31" height="27" viewBox="0 0 31 27" fill="none" xmlns="http://www.w3.org/2000/svg">
<g clip-path="url(#clip0_45_352)">
<path d="M16.7917 23.625V25.875H14.2083V23.625H3.875C3.53243 23.625 3.20389 23.5065 2.96165 23.2955C2.71942 23.0845 2.58333 22.7984 2.58333 22.5V4.5C2.58333 4.20163 2.71942 3.91549 2.96165 3.70451C3.20389 3.49353 3.53243 3.375 3.875 3.375H11.625C12.3581 3.37425 13.083 3.50973 13.7512 3.77241C14.4195 4.03508 15.0157 4.41891 15.5 4.89825C15.9843 4.41891 16.5805 4.03508 17.2488 3.77241C17.917 3.50973 18.6419 3.37425 19.375 3.375H27.125C27.4676 3.375 27.7961 3.49353 28.0383 3.70451C28.2806 3.91549 28.4167 4.20163 28.4167 4.5V22.5C28.4167 22.7984 28.2806 23.0845 28.0383 23.2955C27.7961 23.5065 27.4676 23.625 27.125 23.625H16.7917ZM25.8333 21.375V5.625H19.375C18.6899 5.625 18.0328 5.86206 17.5483 6.28401C17.0638 6.70597 16.7917 7.27827 16.7917 7.875V21.375H25.8333ZM14.2083 21.375V7.875C14.2083 7.27827 13.9362 6.70597 13.4517 6.28401C12.9672 5.86206 12.3101 5.625 11.625 5.625H5.16667V21.375H14.2083Z" fill="#231F20"/>
</g>
<defs>
<clipPath id="clip0_45_352">
<rect width="31" height="27" fill="white"/>
</clipPath>
</defs>
</svg>
