<svg width="20" height="20" viewBox="0 0 20 20" fill="none" xmlns="http://www.w3.org/2000/svg">
<path d="M10.5917 12.9499L15.3 8.23328C15.3781 8.15581 15.4401 8.06364 15.4824 7.96209C15.5247 7.86054 15.5465 7.75162 15.5465 7.64161C15.5465 7.5316 15.5247 7.42268 15.4824 7.32113C15.4401 7.21958 15.3781 7.12741 15.3 7.04994C15.1439 6.89474 14.9327 6.80762 14.7125 6.80762C14.4924 6.80762 14.2811 6.89474 14.125 7.04994L9.95834 11.1749L5.83334 7.04994C5.67721 6.89474 5.466 6.80762 5.24584 6.80762C5.02569 6.80762 4.81448 6.89474 4.65834 7.04994C4.5796 7.12712 4.51696 7.21916 4.47405 7.32072C4.43113 7.42229 4.4088 7.53135 4.40834 7.64161C4.4088 7.75187 4.43113 7.86094 4.47405 7.9625C4.51696 8.06406 4.5796 8.1561 4.65834 8.23328L9.36668 12.9499C9.44471 13.0345 9.53942 13.102 9.64484 13.1482C9.75025 13.1944 9.86409 13.2182 9.97918 13.2182C10.0943 13.2182 10.2081 13.1944 10.3135 13.1482C10.4189 13.102 10.5136 13.0345 10.5917 12.9499Z" fill="black"/>
</svg>
