<svg width="36" height="30" viewBox="0 0 36 30" fill="none" xmlns="http://www.w3.org/2000/svg">
<path d="M31.0909 28.1681C31.0909 28.5688 30.9185 28.953 30.6116 29.2362C30.3048 29.5195 29.8885 29.6786 29.4545 29.6786H6.54545C6.11146 29.6786 5.69525 29.5195 5.38837 29.2362C5.08149 28.953 4.90909 28.5688 4.90909 28.1681V14.5737H0L16.8987 0.393267C17.2 0.140227 17.5927 0 18 0C18.4073 0 18.8 0.140227 19.1013 0.393267L36 14.5737H31.0909V28.1681ZM18 20.6157C19.085 20.6157 20.1255 20.2178 20.8927 19.5097C21.6599 18.8015 22.0909 17.841 22.0909 16.8395C22.0909 15.838 21.6599 14.8775 20.8927 14.1693C20.1255 13.4611 19.085 13.0633 18 13.0633C16.915 13.0633 15.8745 13.4611 15.1073 14.1693C14.3401 14.8775 13.9091 15.838 13.9091 16.8395C13.9091 17.841 14.3401 18.8015 15.1073 19.5097C15.8745 20.2178 16.915 20.6157 18 20.6157Z" fill="#E48716"/>
</svg>
